<mxfile host="drawio-plugin" modified="2023-01-06T06:07:35.788Z" agent="5.0 (Macintosh; Intel Mac OS X 10_15_7) AppleWebKit/537.36 (KHTML, like Gecko) Chrome/98.0.4758.102 Safari/537.36" etag="l2xhfRaf5vBsMpVlZOGP" version="20.5.3" type="embed"><diagram id="_Z26KuHFKtAP501Jzn5v" name="Page-1"><mxGraphModel dx="1051" dy="1634" grid="1" gridSize="10" guides="1" tooltips="1" connect="1" arrows="1" fold="1" page="1" pageScale="1" pageWidth="827" pageHeight="1169" math="0" shadow="0"><root><mxCell id="0"/><mxCell id="1" parent="0"/><mxCell id="3GqrKqht87loaUVbR90r-3" value="" style="edgeStyle=orthogonalEdgeStyle;rounded=0;orthogonalLoop=1;jettySize=auto;html=1;" parent="1" source="3GqrKqht87loaUVbR90r-1" target="3GqrKqht87loaUVbR90r-2" edge="1"><mxGeometry relative="1" as="geometry"/></mxCell><mxCell id="3GqrKqht87loaUVbR90r-1" value="application" style="rounded=1;whiteSpace=wrap;html=1;" parent="1" vertex="1"><mxGeometry x="220" y="200" width="120" height="60" as="geometry"/></mxCell><mxCell id="3GqrKqht87loaUVbR90r-2" value="domain" style="rounded=1;whiteSpace=wrap;html=1;" parent="1" vertex="1"><mxGeometry x="220" y="290" width="120" height="60" as="geometry"/></mxCell><mxCell id="3GqrKqht87loaUVbR90r-4" value="adapter" style="rounded=1;whiteSpace=wrap;html=1;" parent="1" vertex="1"><mxGeometry x="310" y="100" width="120" height="60" as="geometry"/></mxCell><mxCell id="3GqrKqht87loaUVbR90r-5" value="" style="endArrow=classic;html=1;rounded=0;entryX=0.25;entryY=1;entryDx=0;entryDy=0;" parent="1" target="3GqrKqht87loaUVbR90r-4" edge="1"><mxGeometry width="50" height="50" relative="1" as="geometry"><mxPoint x="280" y="200" as="sourcePoint"/><mxPoint x="370" y="160" as="targetPoint"/></mxGeometry></mxCell><mxCell id="3GqrKqht87loaUVbR90r-6" value="infrastructure" style="rounded=1;whiteSpace=wrap;html=1;" parent="1" vertex="1"><mxGeometry x="400" y="200" width="120" height="60" as="geometry"/></mxCell><mxCell id="3GqrKqht87loaUVbR90r-7" value="" style="endArrow=classic;html=1;rounded=0;entryX=0.75;entryY=1;entryDx=0;entryDy=0;exitX=0.5;exitY=0;exitDx=0;exitDy=0;" parent="1" source="3GqrKqht87loaUVbR90r-6" target="3GqrKqht87loaUVbR90r-4" edge="1"><mxGeometry width="50" height="50" relative="1" as="geometry"><mxPoint x="510" y="330" as="sourcePoint"/><mxPoint x="380" y="330" as="targetPoint"/></mxGeometry></mxCell><mxCell id="3GqrKqht87loaUVbR90r-8" value="basic" style="rounded=1;whiteSpace=wrap;html=1;" parent="1" vertex="1"><mxGeometry x="310" y="380" width="120" height="60" as="geometry"/></mxCell><mxCell id="3GqrKqht87loaUVbR90r-9" value="" style="endArrow=classic;html=1;rounded=0;entryX=0.7;entryY=0.983;entryDx=0;entryDy=0;entryPerimeter=0;exitX=0.5;exitY=0;exitDx=0;exitDy=0;" parent="1" source="3GqrKqht87loaUVbR90r-8" target="3GqrKqht87loaUVbR90r-2" edge="1"><mxGeometry width="50" height="50" relative="1" as="geometry"><mxPoint x="190" y="470" as="sourcePoint"/><mxPoint x="240" y="420" as="targetPoint"/></mxGeometry></mxCell><mxCell id="3GqrKqht87loaUVbR90r-10" value="" style="endArrow=classic;html=1;rounded=0;exitX=0.5;exitY=0;exitDx=0;exitDy=0;entryX=0.25;entryY=1;entryDx=0;entryDy=0;" parent="1" source="3GqrKqht87loaUVbR90r-8" target="3GqrKqht87loaUVbR90r-6" edge="1"><mxGeometry width="50" height="50" relative="1" as="geometry"><mxPoint x="530" y="280" as="sourcePoint"/><mxPoint x="580" y="230" as="targetPoint"/></mxGeometry></mxCell><mxCell id="3GqrKqht87loaUVbR90r-11" value="client" style="rounded=1;whiteSpace=wrap;html=1;" parent="1" vertex="1"><mxGeometry x="50" y="290" width="120" height="60" as="geometry"/></mxCell><mxCell id="3GqrKqht87loaUVbR90r-12" value="" style="endArrow=classic;html=1;rounded=0;entryX=0;entryY=0.5;entryDx=0;entryDy=0;exitX=0.5;exitY=0;exitDx=0;exitDy=0;" parent="1" source="3GqrKqht87loaUVbR90r-11" target="3GqrKqht87loaUVbR90r-4" edge="1"><mxGeometry width="50" height="50" relative="1" as="geometry"><mxPoint x="70" y="300" as="sourcePoint"/><mxPoint x="120" y="250" as="targetPoint"/><Array as="points"><mxPoint x="110" y="130"/></Array></mxGeometry></mxCell><mxCell id="3GqrKqht87loaUVbR90r-13" value="" style="endArrow=classic;html=1;rounded=0;exitX=0.25;exitY=0;exitDx=0;exitDy=0;entryX=0.5;entryY=1;entryDx=0;entryDy=0;" parent="1" source="3GqrKqht87loaUVbR90r-14" target="3GqrKqht87loaUVbR90r-11" edge="1"><mxGeometry width="50" height="50" relative="1" as="geometry"><mxPoint x="90" y="480" as="sourcePoint"/><mxPoint x="140" y="430" as="targetPoint"/></mxGeometry></mxCell><mxCell id="3GqrKqht87loaUVbR90r-14" value="common" style="rounded=1;whiteSpace=wrap;html=1;" parent="1" vertex="1"><mxGeometry x="120" y="480" width="120" height="60" as="geometry"/></mxCell><mxCell id="3GqrKqht87loaUVbR90r-15" value="" style="endArrow=classic;html=1;rounded=0;entryX=0.25;entryY=1;entryDx=0;entryDy=0;exitX=0.75;exitY=0;exitDx=0;exitDy=0;" parent="1" source="3GqrKqht87loaUVbR90r-14" target="3GqrKqht87loaUVbR90r-8" edge="1"><mxGeometry width="50" height="50" relative="1" as="geometry"><mxPoint x="290" y="520" as="sourcePoint"/><mxPoint x="340" y="470" as="targetPoint"/></mxGeometry></mxCell><mxCell id="3" value="" style="edgeStyle=orthogonalEdgeStyle;rounded=0;orthogonalLoop=1;jettySize=auto;html=1;" edge="1" parent="1" source="4" target="5"><mxGeometry relative="1" as="geometry"/></mxCell><mxCell id="4" value="aspectj" style="rounded=1;whiteSpace=wrap;html=1;" vertex="1" parent="1"><mxGeometry x="310" y="-10" width="120" height="60" as="geometry"/></mxCell><mxCell id="5" value="starter" style="rounded=1;whiteSpace=wrap;html=1;" vertex="1" parent="1"><mxGeometry x="310" y="-110" width="120" height="60" as="geometry"/></mxCell><mxCell id="6" value="" style="edgeStyle=orthogonalEdgeStyle;rounded=0;orthogonalLoop=1;jettySize=auto;html=1;exitX=0.5;exitY=0;exitDx=0;exitDy=0;" edge="1" parent="1" source="3GqrKqht87loaUVbR90r-4"><mxGeometry relative="1" as="geometry"><mxPoint x="380" as="sourcePoint"/><mxPoint x="370" y="50" as="targetPoint"/></mxGeometry></mxCell></root></mxGraphModel></diagram></mxfile>